# xmcd CD database file
#
# Track frame offsets:
#	150
#	16086
#	27189
#	41749
#	56306
#	70870
#	85044
#	98878
#	112103
#	128019
#	136971
#	156823
#	173318
#	195448
#	213183
#	224736
#	252267
#	269084
#	291010
#
# Disc length: 4188 seconds
#
# Revision: 0
# Processed by: cddbd v1.5.1PL0 Copyright (c) Steve Scherf et al.
# Submitted via: CDex 1.51
#
DISCID=09105a13
DTITLE=Pousette-Dart Band - Amnesia - Pousette-Dart Band 3
DYEAR=1996
DGENRE=Country
TTITLE0=County Line
TTITLE1=Fall On Me
TTITLE2=Amnesia
TTITLE3=I Think I Know
TTITLE4=May You Dance
TTITLE5=I Don't Know Why
TTITLE6=Winterness
TTITLE7=Who's That Knockin'
TTITLE8=Listen To The Spirit
TTITLE9=Yaicha
TTITLE10=Next To You
TTITLE11=Stand By Me
TTITLE12=Love Is My Belief
TTITLE13=I Stayed Away Too Long
TTITLE14=Where Are You Going?
TTITLE15=Louisiana
TTITLE16=Too Blue To Be True
TTITLE17=Mr. Saturday Night
TTITLE18=Lord's Song
EXTD=YEAR: 1996
EXTT0=
EXTT1=
EXTT2=
EXTT3=
EXTT4=
EXTT5=
EXTT6=
EXTT7=
EXTT8=
EXTT9=
EXTT10=
EXTT11=
EXTT12=
EXTT13=
EXTT14=
EXTT15=
EXTT16=
EXTT17=
EXTT18=
PLAYORDER=
